<svg xmlns="http://www.w3.org/2000/svg" viewBox="0 0 618 618"><defs><style>.cls-1,.cls-2{stroke:#000;stroke-miterlimit:10;}.cls-2{fill:none;}</style></defs><title>Asset 2</title><g id="Layer_2" data-name="Layer 2"><g id="Layer_1-2" data-name="Layer 1"><g id="começar"><path class="cls-1" d="M151.2,336.8c-3.2,1.6-9.6,3.2-17.8,3.2-19,0-33.3-12-33.3-34.1,0-21.1,14.3-35.4,35.2-35.4,8.4,0,13.7,1.8,16,3l-2.1,7.1a31.68,31.68,0,0,0-13.6-2.8c-15.8,0-26.3,10.1-26.3,27.8,0,16.5,9.5,27.1,25.9,27.1a34.82,34.82,0,0,0,14.2-2.8Z"/><path class="cls-1" d="M217.6,304.6c0,23.2-14.1,35.5-31.3,35.5-17.8,0-30.3-13.8-30.3-34.2,0-21.4,13.3-35.4,31.3-35.4C205.7,270.49,217.6,284.6,217.6,304.6Zm-52.3,1.1c0,14.4,7.8,27.3,21.5,27.3s21.6-12.7,21.6-28c0-13.4-7-27.4-21.5-27.4S165.3,290.9,165.3,305.7Z"/><path class="cls-1" d="M285.7,309.4c-.5-9.4-1.1-20.7-1-29.1h-.3c-2.3,7.9-5.1,16.3-8.5,25.6L264,338.6h-6.6l-10.9-32.1c-3.2-9.5-5.9-18.2-7.8-26.2h-.2c-.2,8.4-.7,19.7-1.3,29.8L235.4,339h-8.3l4.7-67.4h11.1l11.5,32.6c2.8,8.3,5.1,15.7,6.8,22.7h.3c1.7-6.8,4.1-14.2,7.1-22.7l12-32.6h11.1l4.2,67.4h-8.5Z"/><path class="cls-1" d="M344.2,307.4H318v24.3h29.2V339H309.3v-67.4h36.4v7.3H318v21.3h26.2Z"/><path class="cls-1" d="M405.6,336.8c-3.2,1.6-9.5,3.2-17.7,3.2l-2.3,4c3.7.7,7,3.4,7,7.5,0,5.8-5.1,8.1-10.3,8.1a15.19,15.19,0,0,1-7.1-1.7l1.4-4.5a11.88,11.88,0,0,0,5.6,1.3c2.3,0,4.2-.9,4.2-3,0-2.7-3.1-3.8-7.8-4.3l4.2-7.7c-16.5-2-28.3-13.7-28.3-33.8,0-21.1,14.3-35.4,35.2-35.4,8.4,0,13.7,1.8,16,3l-2.1,7.1a31.68,31.68,0,0,0-13.6-2.8c-15.8,0-26.3,10.1-26.3,27.8,0,16.5,9.5,27.1,25.9,27.1a34.82,34.82,0,0,0,14.2-2.8Z"/><path class="cls-1" d="M427.8,317.8l-7,21.2h-9l22.9-67.4h10.5l23,67.4h-9.3l-7.2-21.2Zm22.1-6.8-6.6-19.4c-1.5-4.4-2.5-8.4-3.5-12.3h-.2c-1,4-2.1,8.1-3.4,12.2L429.6,311Z"/><path class="cls-1" d="M478.1,272.5a90.59,90.59,0,0,1,16.7-1.4c9.3,0,15.3,1.7,19.5,5.5a16.79,16.79,0,0,1,5.3,12.8c0,8.9-5.6,14.8-12.7,17.2v.3c5.2,1.8,8.3,6.6,9.9,13.6,2.2,9.4,3.8,15.9,5.2,18.5h-9c-1.1-1.9-2.6-7.7-4.5-16.1-2-9.3-5.6-12.8-13.5-13.1h-8.2V339h-8.7Zm8.7,30.7h8.9c9.3,0,15.2-5.1,15.2-12.8,0-8.7-6.3-12.5-15.5-12.6a35.81,35.81,0,0,0-8.6.8Z"/></g><g id="outercircle"><path d="M309,1A308.08,308.08,0,0,1,428.89,592.8,308.08,308.08,0,0,1,189.11,25.2,306.07,306.07,0,0,1,309,1m0-1C138.34,0,0,138.34,0,309S138.34,618,309,618,618,479.66,618,309,479.66,0,309,0Z"/></g><path id="topleftarc" class="cls-2" d="M149,264.5C149,198.45,222.8,145,314,145"/><path id="toprightarc" class="cls-2" d="M475,273.5c0-71-72-128.5-161-128.5"/><path id="bottomleftarc" class="cls-2" d="M149,344.5C149,412.21,218.33,467,304,467"/><path id="bottomrightarc" class="cls-2" d="M475.5,344.5C475.5,412.21,398.79,467,304,467"/></g></g></svg>