<svg xmlns="http://www.w3.org/2000/svg" viewBox="0 0 317 64"><defs><style>.cls-1{fill:none;}</style></defs><title>Asset 1</title><g id="Layer_2" data-name="Layer 2"><g id="Layer_1-2" data-name="Layer 1"><rect class="cls-1" width="317" height="64"/><path d="M143.56,12.16h5.22V48.22h17.28V52.6h-22.5Z"/><path d="M204.1,32c0,13.92-8.46,21.3-18.78,21.3-10.68,0-18.18-8.28-18.18-20.52,0-12.84,8-21.24,18.78-21.24C197,11.5,204.1,20,204.1,32Zm-31.38.66c0,8.64,4.68,16.38,12.9,16.38s13-7.62,13-16.8c0-8-4.2-16.44-12.9-16.44S172.72,23.74,172.72,32.62Z"/><path d="M241.66,50.8A37.68,37.68,0,0,1,229.24,53c-6.12,0-11.16-1.56-15.12-5.34-3.48-3.36-5.64-8.76-5.64-15.06.06-12.06,8.34-20.88,21.9-20.88a25,25,0,0,1,10.08,1.86l-1.26,4.26a21,21,0,0,0-8.94-1.74c-9.84,0-16.26,6.12-16.26,16.26s6.18,16.32,15.6,16.32c3.42,0,5.76-.48,7-1.08V35.56h-8.22v-4.2h13.32Z"/><path d="M254.86,12.16V52.6h-5.22V12.16Z"/><path d="M264,52.6V12.16h5.7l13,20.46a114.54,114.54,0,0,1,7.26,13.14l.12-.06c-.48-5.4-.6-10.32-.6-16.62V12.16h4.92V52.6h-5.28L276.22,32.08a128.4,128.4,0,0,1-7.56-13.5l-.18.06c.3,5.1.42,10,.42,16.68V52.6Z"/></g></g></svg>